<svg width="36" height="36" viewBox="0 0 36 36" fill="none" xmlns="http://www.w3.org/2000/svg">
<rect x="0.5" y="0.5" width="35" height="35" rx="17.5" fill="#246BEB"/>
<path d="M16.3042 9.57757C15.1117 9.19151 13.8152 9.7285 13.2449 10.8448L12.5593 12.1868C12.4779 12.3462 12.3482 12.4759 12.1887 12.5574L10.8467 13.243C9.73046 13.8133 9.19346 15.1097 9.57952 16.3023L10.0436 17.736C10.0988 17.9064 10.0988 18.0898 10.0436 18.2602L9.57952 19.6939C9.19346 20.8865 9.73046 22.1829 10.8467 22.7533L12.1887 23.4388C12.3482 23.5203 12.4779 23.65 12.5593 23.8095L13.2449 25.1515C13.8152 26.2677 15.1117 26.8047 16.3042 26.4187L17.738 25.9545C17.9083 25.8994 18.0918 25.8994 18.2621 25.9545L19.6959 26.4187C20.8885 26.8047 22.1849 26.2677 22.7552 25.1515L23.4408 23.8095C23.5223 23.65 23.652 23.5203 23.8114 23.4388L25.1534 22.7533C26.2697 22.1829 26.8067 20.8865 26.4206 19.6939L25.9565 18.2602C25.9013 18.0898 25.9013 17.9064 25.9565 17.736L26.4206 16.3023C26.8067 15.1097 26.2697 13.8133 25.1534 13.243L23.8114 12.5574C23.652 12.4759 23.5223 12.3462 23.4408 12.1868L22.7552 10.8448C22.1849 9.7285 20.8885 9.19151 19.6959 9.57757L18.2621 10.0417C18.0918 10.0968 17.9083 10.0968 17.738 10.0417L16.3042 9.57757ZM13.5412 17.7916L14.7446 16.5882L17.1512 18.9949L21.9646 14.1816L23.1679 15.3849L17.1512 21.4015L13.5412 17.7916Z" fill="white"/>
</svg>
