<svg width="32" height="32" viewBox="0 0 32 32" fill="none" xmlns="http://www.w3.org/2000/svg">
<path fill-rule="evenodd" clip-rule="evenodd" d="M6.38066 27.0537C5.06569 27.0537 4 25.988 4 24.6731V13.6512L6.7435 5.43497C7.02993 4.57784 7.83205 4 8.7356 4H22.5967C23.5002 4 24.3024 4.57784 24.5888 5.43497L27.3323 13.6512V24.6731C27.3323 25.988 26.2666 27.0537 24.9516 27.0537H6.38066Z" fill="#FFA300"/>
<path d="M21.636 6.68652H9.69558C9.12319 6.68652 8.65918 7.15054 8.65918 7.72293V17.2463C8.65918 17.8187 9.12319 18.2827 9.69558 18.2827H21.636C22.2084 18.2827 22.6724 17.8187 22.6724 17.2463V7.72293C22.6724 7.15054 22.2084 6.68652 21.636 6.68652Z" fill="#D9DDE0"/>
<path d="M23.3569 9.9165H7.97655C7.37142 9.9165 6.88086 10.4071 6.88086 11.0122V23.1912C6.88086 23.7963 7.37142 24.2869 7.97655 24.2869H23.3569C23.962 24.2869 24.4526 23.7963 24.4526 23.1912V11.0122C24.4526 10.4071 23.962 9.9165 23.3569 9.9165Z" fill="white"/>
<path fill-rule="evenodd" clip-rule="evenodd" d="M27.3323 13.6509H4V24.9542C4 26.1141 4.93998 27.0541 6.09995 27.0541H25.2331C26.393 27.0541 27.333 26.1141 27.333 24.9542L27.3323 13.6509Z" fill="#FFC33A"/>
</svg>
