<svg width="32" height="32" viewBox="0 0 32 32" fill="none" xmlns="http://www.w3.org/2000/svg">
<path d="M25.1635 5.35889H6.8361C5.71149 5.35889 4.7998 6.27057 4.7998 7.39519V25.0436C4.7998 26.1682 5.71149 27.0799 6.8361 27.0799H25.1635C26.2881 27.0799 27.1998 26.1682 27.1998 25.0436V7.39519C27.1998 6.27057 26.2881 5.35889 25.1635 5.35889Z" fill="#E5E9EE"/>
<path d="M9.7002 15.6172C9.7002 15.3001 9.8633 15.0047 10.1328 14.8367L12.2391 13.5193C12.454 13.3849 12.7025 13.3135 12.9559 13.3135C13.7021 13.3135 14.3076 13.9183 14.3076 14.6652V22.473C14.3076 23.0883 13.8085 23.5874 13.1932 23.5874C12.5779 23.5874 12.0788 23.0883 12.0788 22.473V15.8006L11.1058 16.4012C10.4926 16.7799 9.7016 16.3389 9.7016 15.6179L9.7002 15.6172Z" fill="#EF4452"/>
<path d="M15.4648 14.3529C15.4648 13.8538 15.8694 13.4492 16.3685 13.4492H21.4876C21.9363 13.4492 22.3003 13.8132 22.3003 14.2619C22.3003 14.7841 22.1932 15.3 21.9846 15.7788L18.8878 22.9034C18.7072 23.3185 18.2977 23.5873 17.8448 23.5873C17.0202 23.5873 16.47 22.7382 16.806 21.9857L19.8139 15.2573H16.3692C15.8701 15.2573 15.4655 14.8527 15.4655 14.3536L15.4648 14.3529Z" fill="#EF4452"/>
<path d="M6.8361 5.35889H25.1635C26.2877 5.35889 27.1998 6.27169 27.1998 7.39519V10.6754H4.7998V7.39519C4.7998 6.27099 5.7126 5.35889 6.8361 5.35889Z" fill="#FDAEB3"/>
<path d="M9.21168 7.0562C8.74268 7.0562 8.36328 6.6768 8.36328 6.2078V4.511C8.36328 4.042 8.74268 3.6626 9.21168 3.6626C9.68068 3.6626 10.0601 4.042 10.0601 4.511V6.2078C10.0601 6.6768 9.68068 7.0562 9.21168 7.0562Z" fill="#4B596A"/>
<path d="M13.7371 7.0562C13.2681 7.0562 12.8887 6.6768 12.8887 6.2078V4.511C12.8887 4.042 13.2681 3.6626 13.7371 3.6626C14.2061 3.6626 14.5855 4.042 14.5855 4.511V6.2078C14.5855 6.6768 14.2061 7.0562 13.7371 7.0562Z" fill="#4B596A"/>
<path d="M18.2615 7.0562C17.7925 7.0562 17.4131 6.6768 17.4131 6.2078V4.511C17.4131 4.042 17.7925 3.6626 18.2615 3.6626C18.7305 3.6626 19.1099 4.042 19.1099 4.511V6.2078C19.1099 6.6768 18.7305 7.0562 18.2615 7.0562Z" fill="#4B596A"/>
<path d="M22.7869 7.0562C22.3179 7.0562 21.9385 6.6768 21.9385 6.2078V4.511C21.9385 4.042 22.3179 3.6626 22.7869 3.6626C23.2559 3.6626 23.6353 4.042 23.6353 4.511V6.2078C23.6353 6.6768 23.2559 7.0562 22.7869 7.0562Z" fill="#4B596A"/>
</svg>
