<svg width="32" height="32" viewBox="0 0 32 32" fill="none" xmlns="http://www.w3.org/2000/svg">
<path d="M16 29C22.6274 29 28 23.6274 28 17C28 10.3726 22.6274 5 16 5C9.37258 5 4 10.3726 4 17C4 23.6274 9.37258 29 16 29Z" fill="#FFC84D"/>
<path d="M22.5455 17.9678C23.0482 17.9678 23.4541 18.4176 23.3615 18.9113C22.8109 21.8585 19.7217 24.1152 15.9935 24.1152C12.2653 24.1152 9.17615 21.8585 8.62552 18.9113C8.53295 18.4176 8.93958 17.9678 9.44152 17.9678H22.5455Z" fill="#FF6D00"/>
<path d="M15.9941 19.7047C18.4387 19.7047 20.7008 19.0601 22.5461 17.9678H9.44141C11.2867 19.0601 13.5495 19.7047 15.9941 19.7047Z" fill="white"/>
<path d="M12.8607 15.4612C13.6613 15.4612 14.3103 14.8122 14.3103 14.0116C14.3103 13.211 13.6613 12.562 12.8607 12.562C12.0601 12.562 11.4111 13.211 11.4111 14.0116C11.4111 14.8122 12.0601 15.4612 12.8607 15.4612Z" fill="black"/>
<path d="M19.1391 15.4612C19.9396 15.4612 20.5887 14.8122 20.5887 14.0116C20.5887 13.211 19.9396 12.562 19.1391 12.562C18.3385 12.562 17.6895 13.211 17.6895 14.0116C17.6895 14.8122 18.3385 15.4612 19.1391 15.4612Z" fill="black"/>
</svg>
