<svg width="32" height="32" viewBox="0 0 32 32" fill="none" xmlns="http://www.w3.org/2000/svg">
<path d="M8.98666 26.7535V23.0906C8.98666 22.1803 9.25424 21.3133 9.72651 20.5762C10.1792 19.8343 10.838 19.2195 11.6505 18.8247H19.886C20.6985 19.2195 21.3573 19.8343 21.81 20.5762C22.2823 21.3133 22.5499 22.181 22.5499 23.0906V26.7535H23.6642V22.9823C23.6642 20.9025 22.4765 19.0057 20.6056 18.0982L17.1872 16.4389C16.9238 16.3111 16.7561 16.0435 16.7561 15.7508C16.7561 15.458 16.9238 15.1905 17.1872 15.0626L20.6056 13.4034C22.4765 12.4952 23.6642 10.5984 23.6642 8.51925V4.74805H7.87305V8.51925C7.87305 10.5991 9.06072 12.4959 10.9316 13.4034L14.35 15.0626C14.6134 15.1905 14.7811 15.458 14.7811 15.7508C14.7811 16.0435 14.6134 16.3111 14.35 16.4389L10.9316 18.0982C9.06072 19.0064 7.87305 20.9032 7.87305 22.9823V26.7535H8.98666Z" fill="#D0D6DE"/>
<path d="M21.8097 20.5762C21.357 19.8342 20.6982 19.2194 19.8857 18.8247H11.6502C10.8377 19.2194 10.1789 19.8342 9.72618 20.5762C9.2539 21.3132 8.98633 22.1809 8.98633 23.0905V26.7535H22.5488V23.0905C22.5488 22.1802 22.282 21.3132 21.8097 20.5762Z" fill="#FF9E00"/>
<path d="M23.6637 4.74658C24.1458 4.74658 24.537 4.35534 24.537 3.87329C24.537 3.39123 24.1458 3 23.6637 3H7.87329C7.39123 3 7 3.39123 7 3.87329C7 4.35534 7.39123 4.74658 7.87329 4.74658H23.6637Z" fill="#6E4944"/>
<path d="M23.6637 26.7534H7.87329C7.39123 26.7534 7 27.1447 7 27.6267C7 28.1088 7.39123 28.5 7.87329 28.5H23.6644C24.1465 28.5 24.5377 28.1088 24.5377 27.6267C24.5377 27.1447 24.1458 26.7534 23.6637 26.7534Z" fill="#6E4944"/>
</svg>
