<svg width="32" height="32" viewBox="0 0 32 32" fill="none" xmlns="http://www.w3.org/2000/svg">
<path d="M17.8409 5.80106L20.5455 11.0699C20.7629 11.4942 21.1843 11.7879 21.6707 11.856L27.7187 12.7012C28.9447 12.8725 29.434 14.3209 28.547 15.1524L24.1707 19.2534C23.8188 19.5836 23.6578 20.0595 23.7408 20.5258L24.7737 26.3166C24.9833 27.4906 23.7015 28.3861 22.6049 27.8317L17.1956 25.0972C16.76 24.8772 16.24 24.8772 15.8044 25.0972L10.3951 27.8317C9.29854 28.3861 8.01669 27.4906 8.22628 26.3166L9.2592 20.5258C9.34218 20.0595 9.18195 19.5842 8.8293 19.2534L4.45298 15.1524C3.56599 14.3209 4.05527 12.8725 5.28132 12.7012L11.3293 11.856C11.8165 11.7879 12.2371 11.4942 12.4545 11.0699L15.1591 5.80106C15.7071 4.73298 17.2915 4.73298 17.8401 5.80106H17.8409Z" fill="#FFCD00"/>
</svg>
