<svg width="32" height="32" viewBox="0 0 32 32" fill="none" xmlns="http://www.w3.org/2000/svg">
<path d="M24.7093 5.27344H9.36731C8.76029 5.27344 8.18489 5.52917 7.79195 5.953C7.78261 5.96378 7.77399 5.97527 7.76465 5.98605C7.70287 6.05573 7.6454 6.12972 7.5944 6.20802C7.54699 6.28273 7.50532 6.36031 7.46797 6.44149C7.45576 6.46663 7.44067 6.49034 7.42918 6.5162C7.36883 6.66059 7.33076 6.81503 7.30562 6.97379C7.28694 7.09519 7.27545 7.21588 7.2776 7.33297C7.27904 7.38757 7.28838 7.43929 7.29341 7.49317C7.30275 7.5844 7.3128 7.67491 7.33363 7.76183C7.34728 7.81786 7.36596 7.8703 7.38392 7.92418C7.4105 8.00392 7.43851 8.08222 7.47443 8.15693C7.49958 8.20937 7.52759 8.25894 7.55633 8.3085C7.59727 8.37818 7.64181 8.44571 7.69138 8.51036C7.72586 8.55562 7.76178 8.60016 7.80057 8.64254C7.85516 8.70288 7.91407 8.7582 7.97513 8.81135C8.01751 8.84871 8.0599 8.88534 8.10515 8.91911C8.17268 8.96867 8.24595 9.01106 8.31994 9.052C8.36735 9.07787 8.41261 9.1066 8.46218 9.12887C8.54694 9.16694 8.63674 9.19496 8.72725 9.22154C8.77179 9.23447 8.81489 9.25243 8.86086 9.2632C9.00023 9.29337 9.1439 9.31205 9.29188 9.31205H24.7086C25.4212 9.31205 25.9987 9.88961 25.9987 10.6022V6.56433C25.9987 5.85172 25.4212 5.27416 24.7086 5.27416L24.7093 5.27344Z" fill="#E5E8EB"/>
<path d="M9.41867 10.6018C7.53082 10.6018 6 9.07095 6 7.18311V24.0193C6 25.7778 7.42522 27.2023 9.18305 27.2023H24.7089C25.4215 27.2023 25.9991 26.6248 25.9991 25.9122V10.6018H9.41867Z" fill="#FFC33A"/>
<path d="M7.30839 6.974C7.28684 7.09613 7.27247 7.21825 7.27966 7.33318C7.27966 7.39065 7.28684 7.44094 7.29402 7.49122C7.30121 7.58461 7.31557 7.678 7.33712 7.7642C7.34431 7.81448 7.36586 7.87195 7.38741 7.92224C7.40896 8.00126 7.43769 8.08028 7.47361 8.1593C7.50235 8.20958 7.53108 8.25987 7.55981 8.31015C7.59573 8.38199 7.64602 8.44664 7.68912 8.51129C7.72504 8.55439 7.76096 8.5975 7.80406 8.6406C7.85434 8.70525 7.91181 8.75553 7.97646 8.813C8.01956 8.84892 8.06267 8.88484 8.10577 8.92076C8.1776 8.97104 8.24944 9.01414 8.32128 9.05006C8.37156 9.0788 8.41466 9.10753 8.46495 9.12908C8.55115 9.165 8.63735 9.19373 8.73074 9.22247C8.77384 9.23683 8.81694 9.2512 8.86004 9.26557C9.00372 9.2943 9.14739 9.30867 9.29106 9.30867H24.707C25.4254 9.30867 26.0001 9.89054 26.0001 10.6017H9.42036C7.53108 10.6017 6.00098 9.07161 6.00098 7.18233C6.00098 5.42235 7.42333 4 9.18331 4H24.7286C25.4326 4 26.0001 4.5675 26.0001 5.27149V6.56454C26.0001 5.85337 25.4254 5.27149 24.707 5.27149H9.37008C8.75947 5.27149 8.18479 5.5301 7.78969 5.95394C7.78251 5.96112 7.77532 5.97549 7.76814 5.98267C7.70349 6.05451 7.64602 6.12634 7.59573 6.20536C7.54545 6.28438 7.50953 6.3634 7.46643 6.44242C7.45924 6.46397 7.43769 6.4927 7.43051 6.51426C7.38023 6.63638 7.33712 6.7585 7.31557 6.89499C7.30839 6.91654 7.30839 6.94527 7.30839 6.974Z" fill="#FFA300"/>
</svg>
