<svg width="16" height="16" viewBox="0 0 16 16" fill="none" xmlns="http://www.w3.org/2000/svg">
<g clip-path="url(#clip0_4073_129801)">
<path d="M9.75586 7.62305C9.75586 7.31836 9.86719 7.05469 10.0898 6.83203C10.3008 6.60938 10.5645 6.49805 10.8809 6.49805C11.1973 6.49805 11.4668 6.60938 11.6895 6.83203C11.9004 7.05469 12.0059 7.31836 12.0059 7.62305C12.0059 7.92773 11.9004 8.19141 11.6895 8.41406C11.4668 8.63672 11.1973 8.74805 10.8809 8.74805C10.5645 8.74805 10.3008 8.63672 10.0898 8.41406C9.86719 8.19141 9.75586 7.92773 9.75586 7.62305ZM6.38086 7.62305C6.38086 7.31836 6.49219 7.05469 6.71484 6.83203C6.92578 6.60938 7.18945 6.49805 7.50586 6.49805C7.82227 6.49805 8.0918 6.60938 8.31445 6.83203C8.52539 7.05469 8.63086 7.31836 8.63086 7.62305C8.63086 7.92773 8.52539 8.19141 8.31445 8.41406C8.0918 8.63672 7.82227 8.74805 7.50586 8.74805C7.18945 8.74805 6.92578 8.63672 6.71484 8.41406C6.49219 8.19141 6.38086 7.92773 6.38086 7.62305ZM3.00586 7.62305C3.00586 7.31836 3.11719 7.05469 3.33984 6.83203C3.55078 6.60938 3.81445 6.49805 4.13086 6.49805C4.44727 6.49805 4.7168 6.60938 4.93945 6.83203C5.15039 7.05469 5.25586 7.31836 5.25586 7.62305C5.25586 7.92773 5.15039 8.19141 4.93945 8.41406C4.7168 8.63672 4.44727 8.74805 4.13086 8.74805C3.81445 8.74805 3.55078 8.63672 3.33984 8.41406C3.11719 8.19141 3.00586 7.92773 3.00586 7.62305ZM7.50586 1.99805C8.32617 1.99805 9.10547 2.13867 9.84375 2.41992C10.5703 2.70117 11.2031 3.08789 11.7422 3.58008C12.2812 4.07227 12.709 4.64648 13.0254 5.30273C13.3418 5.95898 13.5 6.65625 13.5 7.39453C13.5 8.29688 13.2656 9.14648 12.7969 9.94336C12.3281 10.7285 11.6777 11.373 10.8457 11.877L9.68555 12.5801L10.2832 13.8105C9.67383 13.7285 9.0293 13.6172 8.34961 13.4766C7.66992 13.3359 7.00195 13.1543 6.3457 12.9316C5.68945 12.6973 5.06836 12.4219 4.48242 12.1055C3.89648 11.7773 3.39844 11.3906 2.98828 10.9453L2.75977 10.6816C2.34961 10.2129 2.03906 9.69727 1.82812 9.13477C1.61719 8.57227 1.51172 7.99219 1.51172 7.39453C1.51172 6.65625 1.66992 5.95898 1.98633 5.30273C2.30273 4.64648 2.73047 4.07227 3.26953 3.58008C3.80859 3.08789 4.44727 2.70117 5.18555 2.41992C5.91211 2.13867 6.68555 1.99805 7.50586 1.99805ZM7.50586 0.503906C6.47461 0.503906 5.50195 0.685547 4.58789 1.04883C3.67383 1.40039 2.87695 1.89258 2.19727 2.52539C1.51758 3.14648 0.984375 3.87891 0.597656 4.72266C0.199219 5.55469 0 6.44531 0 7.39453C0 8.20312 0.146484 8.9707 0.439453 9.69727C0.720703 10.4238 1.11328 11.0801 1.61719 11.666H1.59961C2.39648 12.6152 3.42773 13.3535 4.69336 13.8809C5.94727 14.3965 7.17188 14.7773 8.36719 15.0234C9.5625 15.2578 10.5938 15.3984 11.4609 15.4453C12.3281 15.4805 12.7617 15.498 12.7617 15.498L11.6367 13.1602C12.1406 12.8555 12.6035 12.498 13.0254 12.0879C13.4355 11.666 13.7871 11.209 14.0801 10.7168C14.373 10.2246 14.6016 9.70312 14.7656 9.15234C14.9297 8.58984 15.0117 8.00391 15.0117 7.39453C15.0117 6.44531 14.8184 5.55469 14.4316 4.72266C14.0332 3.87891 13.4941 3.14648 12.8145 2.52539C12.1348 1.89258 11.3379 1.40039 10.4238 1.04883C9.50977 0.685547 8.53711 0.503906 7.50586 0.503906Z" fill="#1D1D1D"/>
</g>
<defs>
<clipPath id="clip0_4073_129801">
<rect width="16" height="16" fill="white"/>
</clipPath>
</defs>
</svg>
