<svg width="159" height="45" viewBox="0 0 159 45" fill="none" xmlns="http://www.w3.org/2000/svg">
<g clip-path="url(#clip0_31_7111)">
<path d="M45 22.5C45 34.9244 34.9244 45 22.5 45C10.0756 45 0 34.9244 0 22.5C0 10.0756 10.0756 0 22.5 0C34.9244 0 45 10.0756 45 22.5Z" fill="white"/>
<path d="M33.0546 20.9301C29.4791 18.499 24.9013 19.4864 22.4927 23.1442C20.4881 26.196 17.4586 26.5775 16.2918 26.5775C12.462 26.5775 9.85144 23.8847 9.07351 21.1021C9.07351 21.1021 9.05855 21.0497 9.05107 21.0198C9.04359 20.9899 9.03611 20.96 9.02863 20.9301C8.72195 19.7632 8.64715 19.2171 8.64715 17.9829C8.64715 11.3332 15.4764 3.92042 25.3052 3.92042C35.134 3.92042 41.1405 11.5875 42.629 15.8511C42.5991 15.7688 42.5767 15.7015 42.5542 15.6267C39.6894 7.28644 31.7904 1.29492 22.4778 1.29492C10.779 1.29492 1.2793 10.7871 1.2793 22.5009C1.2793 32.9729 8.82667 41.9266 19.3062 41.9266C27.654 41.9266 33.2715 37.2441 35.8446 30.7888C37.2583 27.2582 36.256 23.1068 33.0546 20.9301Z" fill="#003763"/>
<path d="M42.7555 16.2542C41.5138 12.0953 35.7093 3.91211 25.3046 3.91211C15.4758 3.91211 8.64648 11.3248 8.64648 17.9746C8.64648 19.2088 8.72128 19.7623 9.02797 20.9217C8.90081 20.4131 8.83349 19.9045 8.83349 19.4108C8.83349 12.4768 15.7675 7.68206 22.9035 7.68206C32.5602 7.68206 40.3918 15.5062 40.3918 25.1629C40.3918 32.7328 36.0384 39.2853 29.7103 42.4344C37.871 39.4872 43.6905 31.6706 43.6905 22.4926C43.6905 20.3233 43.3988 18.4085 42.763 16.2542" fill="#E4022D"/>
<path d="M59.5108 13.5167V11.8262H62.1737V13.5167H65.8764V15.5961H55.4043V13.5167H59.5183H59.5108ZM65.4276 20.3385C65.4276 20.9219 65.3004 21.468 65.061 21.9841C64.8142 22.4927 64.4851 22.9415 64.0662 23.323C63.6473 23.712 63.1686 24.0112 62.6225 24.2356C62.0765 24.46 61.4856 24.5722 60.8573 24.5722C60.2289 24.5722 59.638 24.46 59.092 24.2356C58.5459 24.0112 58.0597 23.7045 57.6483 23.323C57.2294 22.9415 56.9003 22.4927 56.6535 21.9841C56.4066 21.4754 56.2869 20.9294 56.2869 20.3385C56.2869 19.7475 56.4066 19.2015 56.6535 18.6854C56.9003 18.1693 57.2294 17.7205 57.6483 17.3315C58.0672 16.9425 58.5459 16.6433 59.092 16.4189C59.638 16.1945 60.2289 16.0823 60.8573 16.0823C61.4856 16.0823 62.0765 16.1945 62.6225 16.4189C63.1686 16.6433 63.6473 16.95 64.0662 17.3315C64.4851 17.713 64.8142 18.1693 65.061 18.6854C65.3079 19.2015 65.4276 19.755 65.4276 20.3385ZM63.0938 20.3086C63.0938 19.7101 62.8769 19.1865 62.4355 18.7452C61.9942 18.3039 61.4706 18.087 60.8498 18.087C60.2289 18.087 59.7053 18.3039 59.279 18.7452C58.8451 19.1865 58.6282 19.7027 58.6282 20.3086C58.6282 20.9144 58.8451 21.4231 59.279 21.8569C59.7128 22.2908 60.2364 22.5077 60.8498 22.5077C61.4631 22.5077 61.9942 22.2908 62.4355 21.8569C62.8769 21.4231 63.0938 20.907 63.0938 20.3086ZM71.9277 28.4768C71.9277 29.0901 71.7931 29.6736 71.5313 30.2196C71.2695 30.7657 70.9254 31.2519 70.4916 31.6633C70.0428 32.0822 69.5266 32.4113 68.9432 32.6581C68.3597 32.905 67.7314 33.0321 67.0732 33.0321C66.4149 33.0321 65.7791 32.905 65.1882 32.6581C64.5973 32.4113 64.0737 32.0822 63.6249 31.6633C63.191 31.2444 62.8469 30.7657 62.5851 30.2196C62.3233 29.6736 62.1887 29.0901 62.1887 28.4768C62.1887 27.8634 62.3159 27.2725 62.5851 26.719C62.8469 26.1654 63.191 25.6792 63.6249 25.2603C64.0737 24.8415 64.5898 24.5123 65.1882 24.2655C65.7791 24.0187 66.4075 23.8915 67.0732 23.8915C67.7389 23.8915 68.3597 24.0112 68.9432 24.2655C69.5266 24.5123 70.0428 24.8415 70.4916 25.2603C70.9254 25.6792 71.2695 26.1654 71.5313 26.719C71.7931 27.2725 71.9277 27.8634 71.9277 28.4768ZM69.4743 28.4543C69.4743 27.8036 69.2349 27.2426 68.7562 26.7638C68.2775 26.2851 67.709 26.0458 67.0433 26.0458C66.3775 26.0458 65.8165 26.2851 65.3453 26.7638C64.874 27.2426 64.6422 27.8036 64.6422 28.4543C64.6422 29.1051 64.874 29.6586 65.3453 30.1299C65.8165 30.6011 66.385 30.833 67.0433 30.833C67.7015 30.833 68.2775 30.6011 68.7562 30.1299C69.2349 29.6586 69.4743 29.0976 69.4743 28.4543ZM69.4294 23.2707H67.1181V12.2675H69.4294V16.6358H71.4864V12.2451H73.8875V23.5549H71.4864V18.9098H69.4294V23.2781V23.2707Z" fill="#575756"/>
<path d="M76.804 14.9669V12.8126H88.3682V14.9669H83.4463L88.5776 21.2352L86.8198 22.6713L82.7058 17.54L78.6142 23.0229L76.7891 21.5418L81.8979 14.9744H76.8115L76.804 14.9669ZM92.8039 28.1019C92.8039 28.7825 92.6617 29.4183 92.385 30.0093C92.1082 30.6002 91.7342 31.1238 91.2779 31.5726C90.7992 32.0214 90.2382 32.373 89.6024 32.6348C88.9666 32.8966 88.2859 33.0312 87.5828 33.0312C86.8796 33.0312 86.199 32.8966 85.5482 32.6348C84.8974 32.373 84.3364 32.0139 83.8577 31.5726C83.3939 31.1238 83.0274 30.6077 82.7507 30.0093C82.4739 29.4183 82.3318 28.7825 82.3318 28.1019C82.3318 27.4212 82.4739 26.7854 82.7507 26.1795C83.0274 25.5811 83.4014 25.0575 83.8577 24.6087C84.3364 24.1599 84.8974 23.8083 85.5482 23.5465C86.199 23.2847 86.8722 23.1501 87.5828 23.1501C88.2934 23.1501 88.9666 23.2772 89.6024 23.5465C90.2382 23.8158 90.7992 24.1599 91.2779 24.6087C91.7417 25.0575 92.1082 25.5811 92.385 26.1795C92.6617 26.7779 92.8039 27.4212 92.8039 28.1019ZM90.3504 28.0794C90.3504 27.3239 90.0736 26.6732 89.5201 26.1271C88.9666 25.5811 88.3083 25.3043 87.5529 25.3043C86.7974 25.3043 86.1466 25.5811 85.6006 26.1271C85.0545 26.6732 84.7778 27.3239 84.7778 28.0794C84.7778 28.8349 85.0545 29.4857 85.6006 30.0242C86.1466 30.5628 86.7974 30.8321 87.5529 30.8321C88.3083 30.8321 88.9666 30.5628 89.5201 30.0242C90.0736 29.4857 90.3504 28.8349 90.3504 28.0794ZM92.0184 22.9257V18.5573H88.2709V16.403H92.0184V12.2441H94.5168V22.9257H92.0184Z" fill="#575756"/>
<path d="M108.901 17.8841C108.901 18.6396 108.751 19.3502 108.452 20.0084C108.153 20.6742 107.741 21.2576 107.218 21.7662C106.694 22.2599 106.088 22.6564 105.4 22.9481C104.712 23.2398 103.979 23.3894 103.194 23.3894C102.408 23.3894 101.668 23.2398 100.987 22.9481C100.299 22.6564 99.6929 22.2599 99.1693 21.7662C98.6457 21.2576 98.2343 20.6742 97.9351 20.0084C97.6359 19.3427 97.4863 18.6321 97.4863 17.8841C97.4863 17.1361 97.6359 16.418 97.9351 15.7598C98.2343 15.094 98.6457 14.5106 99.1693 14.002C99.6929 13.5083 100.299 13.1118 100.987 12.8201C101.675 12.5284 102.408 12.3788 103.194 12.3788C103.979 12.3788 104.712 12.5284 105.4 12.8201C106.088 13.1118 106.694 13.5083 107.218 14.002C107.741 14.5106 108.153 15.094 108.452 15.7598C108.751 16.4255 108.901 17.1286 108.901 17.8841ZM101.241 25.2594V29.7699H114.788V31.9915H98.743V25.2594H101.241ZM106.492 17.9065C106.492 17.4577 106.403 17.0314 106.223 16.6349C106.044 16.231 105.812 15.8794 105.52 15.5728C105.213 15.281 104.862 15.0492 104.465 14.8696C104.069 14.6901 103.65 14.6004 103.209 14.6004C102.767 14.6004 102.341 14.6901 101.937 14.8696C101.533 15.0492 101.181 15.281 100.875 15.5728C100.583 15.8794 100.344 16.2385 100.172 16.6349C99.9921 17.0389 99.9024 17.4577 99.9024 17.9065C99.9024 18.3553 99.9921 18.7742 100.172 19.1632C100.351 19.5596 100.583 19.9112 100.875 20.2179C101.181 20.5096 101.541 20.749 101.937 20.921C102.341 21.1005 102.76 21.1903 103.209 21.1903C103.657 21.1903 104.076 21.1005 104.465 20.921C104.854 20.7415 105.206 20.5096 105.52 20.2179C105.812 19.9112 106.051 19.5596 106.223 19.1632C106.403 18.7667 106.492 18.3479 106.492 17.9065ZM114.287 25.1472H111.788V12.2441H114.287V16.6349H117.174V19.1108H114.287V25.1472Z" fill="#575756"/>
<path d="M118.977 14.9685V12.8142H130.541V14.9685H125.642L130.751 22.5084L128.851 23.78L124.871 17.7212L120.892 23.9446L118.947 22.6505L124.034 14.976H118.97L118.977 14.9685ZM120.368 31.9856V25.2536H122.867V29.764H136.877V31.9856H120.368ZM134.192 25.1489V19.2022H130.444V16.9806H134.192V12.2383H136.69V25.1414H134.192V25.1489Z" fill="#575756"/>
<path d="M140.139 24.9843H158.637V27.2059H150.633V32.3821H148.112V27.2059H140.139V24.9843ZM144.088 15.1331H154.68V12.5898H157.156V22.2765H141.62V12.5898H144.096V15.1331H144.088ZM154.68 17.3098H144.088V20.0849H154.68V17.3098Z" fill="#575756"/>
</g>
<defs>
<clipPath id="clip0_31_7111">
<rect width="158.637" height="45" fill="white"/>
</clipPath>
</defs>
</svg>
