<svg width="26" height="24" viewBox="0 0 26 24" fill="none" xmlns="http://www.w3.org/2000/svg">
<rect x="4.5" y="0.5" width="17" height="23" fill="white" stroke="#9A9A9A"/>
<rect y="5" width="26" height="14" fill="#086BCF"/>
<rect x="5" y="19" width="16" height="2" fill="#DDDDDD"/>
<path d="M5.90008 15.0007H3.83008V8.62872H5.95408C7.83508 8.63772 8.95108 9.82572 8.96008 11.8147C8.95108 13.7947 7.83508 15.0007 5.90008 15.0007ZM4.80208 14.1547H5.84608C7.28608 14.1547 7.99708 13.3177 8.00608 11.8147C7.99708 10.3117 7.28608 9.48372 5.90008 9.47472H4.80208V14.1547Z" fill="white"/>
<path d="M15.2999 11.8147C15.2999 13.8577 14.0849 15.0907 12.4379 15.0907C10.7819 15.0907 9.56695 13.8487 9.55795 11.8147C9.56695 9.78072 10.7819 8.54772 12.4379 8.55672C14.0849 8.54772 15.2999 9.78072 15.2999 11.8147ZM10.5299 11.8147C10.5299 13.3627 11.3399 14.1997 12.4379 14.2087C13.5269 14.1997 14.3459 13.3627 14.3459 11.8147C14.3459 10.2757 13.5269 9.42972 12.4379 9.43872C11.3399 9.42972 10.5299 10.2757 10.5299 11.8147Z" fill="white"/>
<path d="M20.4329 10.7167C20.2889 9.88872 19.6049 9.42972 18.7949 9.43872C17.6969 9.42972 16.8869 10.2757 16.8869 11.8147C16.8869 13.3717 17.7059 14.1997 18.7949 14.2087C19.5959 14.1997 20.2709 13.7587 20.4329 12.9487H21.4229C21.2159 14.2087 20.1899 15.0907 18.7949 15.0907C17.1299 15.0907 15.9239 13.8487 15.9149 11.8147C15.9239 9.78072 17.1389 8.54772 18.7949 8.55672C20.1359 8.54772 21.1979 9.33972 21.4229 10.7167H20.4329Z" fill="white"/>
</svg>
