<svg width="26" height="25" viewBox="0 0 26 25" fill="none" xmlns="http://www.w3.org/2000/svg">
<rect x="4.5" y="0.898438" width="17" height="23" fill="white" stroke="#9A9A9A"/>
<rect y="5.39844" width="26" height="14" fill="#646EA6"/>
<path d="M4.90807 15.8984V9.35298H9.01176V10.2031H5.89564V12.1974H8.79763V13.0444H5.89564V15.0483H9.05012V15.8984H4.90807ZM10.0081 10.2031V9.35298H15.0738V10.2031H13.0316V15.8984H12.0472V10.2031H10.0081ZM21.3484 11.4815H20.3513C20.3129 11.2685 20.2415 11.081 20.1371 10.919C20.0327 10.7571 19.9049 10.6197 19.7536 10.5067C19.6023 10.3938 19.4329 10.3086 19.2454 10.2511C19.0601 10.1935 18.863 10.1648 18.6542 10.1648C18.277 10.1648 17.9393 10.2596 17.641 10.4492C17.3449 10.6388 17.1105 10.9169 16.9379 11.2834C16.7674 11.6499 16.6822 12.0973 16.6822 12.6257C16.6822 13.1584 16.7674 13.608 16.9379 13.9744C17.1105 14.3409 17.3459 14.6179 17.6442 14.8054C17.9425 14.9929 18.2781 15.0866 18.651 15.0866C18.8576 15.0866 19.0537 15.0589 19.239 15.0036C19.4265 14.946 19.5959 14.8619 19.7472 14.7511C19.8985 14.6403 20.0263 14.505 20.1307 14.3452C20.2373 14.1832 20.3108 13.9979 20.3513 13.7891L21.3484 13.7923C21.2951 14.114 21.1918 14.4102 21.0384 14.6808C20.8871 14.9492 20.6922 15.1815 20.4535 15.3775C20.217 15.5714 19.9464 15.7216 19.6417 15.8281C19.337 15.9347 19.0047 15.9879 18.6446 15.9879C18.0778 15.9879 17.5728 15.8537 17.1297 15.5852C16.6865 15.3146 16.337 14.9279 16.0814 14.4251C15.8278 13.9222 15.701 13.3224 15.701 12.6257C15.701 11.9268 15.8289 11.3271 16.0846 10.8263C16.3402 10.3235 16.6897 9.93785 17.1329 9.66939C17.576 9.39879 18.0799 9.26349 18.6446 9.26349C18.9919 9.26349 19.3157 9.31357 19.6162 9.41371C19.9187 9.51172 20.1904 9.6566 20.4312 9.84837C20.6719 10.038 20.8711 10.2702 21.0288 10.5451C21.1865 10.8178 21.293 11.13 21.3484 11.4815Z" fill="white"/>
<rect x="5" y="19.3984" width="16" height="2" fill="#DDDDDD"/>
</svg>
