<svg width="26" height="24" viewBox="0 0 26 24" fill="none" xmlns="http://www.w3.org/2000/svg">
<rect x="4.5" y="0.5" width="17" height="23" fill="white" stroke="#9A9A9A"/>
<rect y="5" width="26" height="14" fill="#4087C7"/>
<rect x="5" y="19" width="16" height="2" fill="#DDDDDD"/>
<path d="M3.72656 15.0009V8.62891H4.69856V11.4009H7.84856V8.62891H8.82056V15.0009H7.84856V12.2289H4.69856V15.0009H3.72656Z" fill="white"/>
<path d="M11.1062 15.0009L9.34221 8.62891H10.3502L11.5922 13.5609H11.6462L12.9422 8.62891H13.9502L15.2282 13.5609H15.2822L16.5242 8.62891H17.5502L15.7862 15.0009H14.7962L13.4642 10.2489H13.4282L12.0782 15.0009H11.1062Z" fill="white"/>
<path d="M18.0752 15.0009V8.62891H20.3432C21.8282 8.63791 22.5572 9.52891 22.5572 10.6989C22.5572 11.8779 21.8192 12.7689 20.3432 12.7689H19.0472V15.0009H18.0752ZM19.0472 11.9409H20.2532C21.1892 11.9409 21.5762 11.4189 21.5852 10.6989C21.5762 9.97891 21.1892 9.46591 20.2532 9.47491H19.0472V11.9409Z" fill="white"/>
</svg>
