<svg width="20" height="21" viewBox="0 0 20 21" fill="none" xmlns="http://www.w3.org/2000/svg">
<path fill-rule="evenodd" clip-rule="evenodd" d="M13.2275 15.631L12.1074 14.5109C11.4413 14.6866 10.7329 14.7891 9.9998 14.7891C8.09442 14.7891 6.35564 14.0968 5.09434 13.2256C4.4644 12.7905 3.97148 12.3229 3.64353 11.8976C3.29833 11.4499 3.1998 11.1336 3.1998 10.9891C3.1998 10.8445 3.29833 10.5282 3.64353 10.0806C3.97148 9.65527 4.4644 9.18765 5.09434 8.75252C5.33636 8.58535 5.59595 8.42477 5.87093 8.2744L4.84532 7.24879C4.65545 7.36253 4.47304 7.48016 4.29867 7.60061C3.57138 8.10298 2.96595 8.66661 2.53485 9.22568C2.12101 9.76238 1.7998 10.3836 1.7998 10.9891C1.7998 11.5945 2.12101 12.2157 2.53485 12.7524C2.96595 13.3115 3.57138 13.8751 4.29867 14.3775C5.75184 15.3813 7.76305 16.1891 9.9998 16.1891C11.1505 16.1891 12.2415 15.9753 13.2275 15.631ZM6.77207 6.34712C7.75811 6.00285 8.84911 5.78906 9.9998 5.78906C12.2366 5.78906 14.2478 6.59684 15.7009 7.60061C16.4282 8.10298 17.0337 8.66661 17.4648 9.22568C17.8786 9.76238 18.1998 10.3836 18.1998 10.9891C18.1998 11.5945 17.8786 12.2157 17.4648 12.7524C17.0337 13.3115 16.4282 13.8751 15.7009 14.3775C15.5266 14.498 15.3442 14.6156 15.1543 14.7293L14.1287 13.7037C14.4037 13.5534 14.6633 13.3928 14.9053 13.2256C15.5352 12.7905 16.0281 12.3229 16.3561 11.8976C16.7013 11.4499 16.7998 11.1336 16.7998 10.9891C16.7998 10.8445 16.7013 10.5282 16.3561 10.0806C16.0281 9.65527 15.5352 9.18765 14.9053 8.75252C13.644 7.88129 11.9052 7.18906 9.9998 7.18906C9.26671 7.18906 8.55827 7.29153 7.8922 7.46725L6.77207 6.34712ZM6.92997 9.33344C6.64859 9.82091 6.4873 10.3844 6.4873 10.9891C6.4873 12.8935 8.08711 14.3891 9.9998 14.3891C10.576 14.3891 11.1239 14.2533 11.6081 14.0116L10.5241 12.9276C10.3572 12.9677 10.1817 12.9891 9.9998 12.9891C8.8059 12.9891 7.8873 12.067 7.8873 10.9891C7.8873 10.7813 7.92144 10.5793 7.9851 10.3886L6.92997 9.33344ZM9.47553 9.05057L8.39152 7.96656C8.87576 7.7248 9.42358 7.58906 9.9998 7.58906C11.9125 7.58906 13.5123 9.08464 13.5123 10.9891C13.5123 11.5938 13.351 12.1572 13.0696 12.6447L12.0145 11.5896C12.0782 11.3988 12.1123 11.1968 12.1123 10.9891C12.1123 9.91115 11.1937 8.98906 9.9998 8.98906C9.81789 8.98906 9.64238 9.01047 9.47553 9.05057Z" fill="#2D2D2D"/>
<path d="M4 4.98828L16 16.9883" stroke="#2D2D2D" stroke-width="1.4"/>
</svg>
