<svg width="16" height="16" viewBox="0 0 16 16" fill="none" xmlns="http://www.w3.org/2000/svg">
<mask id="path-1-inside-1_3063_68985" fill="white">
<path d="M14 11L14 13C14 13.5523 13.5523 14 13 14L3 14C2.44771 14 2 13.5523 2 13L2 11L14 11Z"/>
</mask>
<path d="M15 11L15 13C15 14.1046 14.1046 15 13 15L13 13L13 11L15 11ZM3 15C1.89543 15 1 14.1046 1 13L1 11L3 11L3 13L3 15ZM2 11L14 11L2 11ZM15 13C15 14.1046 14.1046 15 13 15L3 15C1.89543 15 1 14.1046 1 13L3 13L13 13L15 13Z" fill="#246BEB" mask="url(#path-1-inside-1_3063_68985)"/>
<path d="M8.00041 10.2027V2.1176M8.00041 10.2027L11.3239 6.87922M8.00041 10.2027L4.67692 6.87922" stroke="#246BEB"/>
</svg>
