<svg width="20" height="21" viewBox="0 0 20 21" fill="none" xmlns="http://www.w3.org/2000/svg">
<mask id="mask0_4073_129774" style="mask-type:luminance" maskUnits="userSpaceOnUse" x="3" y="2" width="14" height="17">
<path fill-rule="evenodd" clip-rule="evenodd" d="M4 2.5C3.44772 2.5 3 2.94772 3 3.5V8.89442V17.5462C3 18.3616 3.92341 18.8342 4.58483 18.3574L10 14.4531L15.4152 18.3574C16.0766 18.8342 17 18.3616 17 17.5462V8.89442V3.5C17 2.94772 16.5523 2.5 16 2.5H4Z" fill="white"/>
</mask>
<g mask="url(#mask0_4073_129774)">
<path d="M9.99961 14.4532L10.8184 13.3176L9.99961 12.7273L9.18085 13.3176L9.99961 14.4532ZM4.39961 3.5001C4.39961 3.72101 4.22052 3.9001 3.99961 3.9001V1.1001C2.67413 1.1001 1.59961 2.17462 1.59961 3.5001H4.39961ZM1.59961 3.5001V8.89452H4.39961V3.5001H1.59961ZM4.39961 17.5463V8.89452H1.59961V17.5463H4.39961ZM3.76568 17.2218C4.03025 17.031 4.39961 17.2202 4.39961 17.5463H1.59961C1.59961 19.5033 3.8158 20.6376 5.4032 19.4931L3.76568 17.2218ZM9.18085 13.3176L3.76568 17.2218L5.4032 19.4931L10.8184 15.5888L9.18085 13.3176ZM9.18085 15.5888L14.596 19.4931L16.2335 17.2219L10.8184 13.3176L9.18085 15.5888ZM14.596 19.4931C16.1834 20.6376 18.3996 19.5032 18.3996 17.5463H15.5996C15.5996 17.2202 15.969 17.0311 16.2335 17.2219L14.596 19.4931ZM18.3996 17.5463V8.89452H15.5996V17.5463H18.3996ZM18.3996 8.89452V3.5001H15.5996V8.89452H18.3996ZM15.9996 3.9001C15.7787 3.9001 15.5996 3.72101 15.5996 3.5001H18.3996C18.3996 2.17462 17.3251 1.1001 15.9996 1.1001V3.9001ZM15.9996 1.1001H3.99961V3.9001H15.9996V1.1001Z" fill="#2D2D2D"/>
</g>
</svg>
