<svg width="20" height="20" viewBox="0 0 20 20" fill="none" xmlns="http://www.w3.org/2000/svg">
<path d="M9.3866 4.91609L9.9998 6.02984L10.613 4.91609C10.9263 4.34709 11.3831 3.87172 11.937 3.53764C12.4849 3.20715 13.1088 3.02639 13.7469 3.0128C14.7793 3.06338 15.7518 3.51984 16.454 4.28547C17.161 5.05635 17.5364 6.07796 17.497 7.1272L17.4965 7.14032V7.15345C17.4965 8.13614 17.0976 9.21536 16.4242 10.3225C15.7551 11.4224 14.8488 12.495 13.9145 13.4502C12.0846 15.321 10.2128 16.6761 9.99983 16.8284C9.77818 16.6692 7.91081 15.3161 6.08509 13.4496C5.15082 12.4945 4.24447 11.4221 3.57543 10.3223C2.90202 9.21526 2.50311 8.13613 2.50311 7.15345V7.14032L2.50262 7.1272C2.46323 6.07796 2.8386 5.05636 3.54562 4.28547C4.24781 3.51984 5.22029 3.06338 6.25274 3.0128C6.89082 3.02639 7.51468 3.20715 8.06261 3.53764C8.61649 3.87172 9.07332 4.34709 9.3866 4.91609Z" stroke="#2D2D2D" stroke-width="1.4"/>
</svg>
