<svg width="20" height="20" viewBox="0 0 20 20" fill="none" xmlns="http://www.w3.org/2000/svg">
<mask id="mask0_3063_70066" style="mask-type:alpha" maskUnits="userSpaceOnUse" x="0" y="0" width="20" height="20">
<rect width="20" height="20" fill="#D9D9D9"/>
</mask>
<g mask="url(#mask0_3063_70066)">
</g>
<path d="M4.08203 6.20833H15.4154M8.33203 9.04167V13.2917M11.1654 9.04167V13.2917M4.79036 6.20833L5.4987 14.7083C5.4987 15.0841 5.64795 15.4444 5.91363 15.7101C6.17931 15.9757 6.53964 16.125 6.91536 16.125H12.582C12.9578 16.125 13.3181 15.9757 13.5838 15.7101C13.8494 15.4444 13.9987 15.0841 13.9987 14.7083L14.707 6.20833M7.6237 6.20833V4.08333C7.6237 3.89547 7.69832 3.7153 7.83116 3.58247C7.964 3.44963 8.14417 3.375 8.33203 3.375H11.1654C11.3532 3.375 11.5334 3.44963 11.6662 3.58247C11.7991 3.7153 11.8737 3.89547 11.8737 4.08333V6.20833" stroke="#fff" stroke-width="1.4" stroke-linecap="round" stroke-linejoin="round"/>
</svg>
