<svg width="20" height="20" viewBox="0 0 20 20" fill="none" xmlns="http://www.w3.org/2000/svg">
<mask id="mask0_3063_70051" style="mask-type:alpha" maskUnits="userSpaceOnUse" x="0" y="0" width="20" height="20">
<rect width="20" height="20" fill="#D9D9D9"/>
</mask>
<g mask="url(#mask0_3063_70051)">
</g>
<path d="M11.0013 6.33203L13.668 8.9987M4.66797 15.3322H7.33464L14.3346 8.33223C14.5097 8.15714 14.6486 7.94927 14.7434 7.72049C14.8381 7.49172 14.8869 7.24652 14.8869 6.9989C14.8869 6.75128 14.8381 6.50608 14.7434 6.2773C14.6486 6.04853 14.5097 5.84066 14.3346 5.66557C14.1595 5.49047 13.9517 5.35158 13.7229 5.25682C13.4941 5.16205 13.2489 5.11328 13.0013 5.11328C12.7537 5.11328 12.5085 5.16205 12.2797 5.25682C12.0509 5.35158 11.8431 5.49047 11.668 5.66557L4.66797 12.6656V15.3322Z" stroke="#fff" stroke-width="1.5" stroke-linecap="round" stroke-linejoin="round"/>
</svg>
