<svg width="20" height="20" viewBox="0 0 20 20" fill="none" xmlns="http://www.w3.org/2000/svg">
<path d="M6.875 6.5V4.625C6.875 4.45 6.93333 4.30417 7.05 4.1875C7.175 4.0625 7.325 4 7.5 4H15C15.175 4 15.3208 4.0625 15.4375 4.1875C15.5625 4.30417 15.625 4.45 15.625 4.625V13.375C15.625 13.55 15.5625 13.7 15.4375 13.825C15.3208 13.9417 15.175 14 15 14H13.125V15.875C13.125 16.05 13.0625 16.1958 12.9375 16.3125C12.8208 16.4375 12.675 16.5 12.5 16.5H5C4.825 16.5 4.675 16.4375 4.55 16.3125C4.43333 16.1958 4.375 16.05 4.375 15.875V7.125C4.375 6.95 4.4375 6.80417 4.5625 6.6875C4.6875 6.5625 4.83333 6.5 5 6.5H6.875ZM5.625 7.75V15.25H11.875V7.75H5.625ZM8.125 6.5H13.125V12.75H14.375V5.25H8.125V6.5Z" fill="#555555"/>
</svg>
