<svg width="20" height="20" viewBox="0 0 20 20" fill="none" xmlns="http://www.w3.org/2000/svg">
<mask id="mask0_3063_70081" style="mask-type:alpha" maskUnits="userSpaceOnUse" x="0" y="0" width="20" height="20">
<rect width="20" height="20" fill="#D9D9D9"/>
</mask>
<g mask="url(#mask0_3063_70081)">
</g>
<path d="M2.75 16.25V14.75C2.75 13.9543 3.06607 13.1913 3.62868 12.6287C4.19129 12.0661 4.95435 11.75 5.75 11.75H8.75C9.54565 11.75 10.3087 12.0661 10.8713 12.6287C11.4339 13.1913 11.75 13.9543 11.75 14.75V16.25M12.5 2.84814C13.1453 3.01337 13.7173 3.38867 14.1257 3.91488C14.5342 4.44108 14.7559 5.08827 14.7559 5.75439C14.7559 6.42052 14.5342 7.0677 14.1257 7.59391C13.7173 8.12012 13.1453 8.49542 12.5 8.66064M16.25 16.2503V14.7503C16.2462 14.0882 16.0234 13.4459 15.6165 12.9236C15.2095 12.4013 14.6411 12.0283 14 11.8628M4.25 5.75C4.25 6.54565 4.56607 7.30871 5.12868 7.87132C5.69129 8.43393 6.45435 8.75 7.25 8.75C8.04565 8.75 8.80871 8.43393 9.37132 7.87132C9.93393 7.30871 10.25 6.54565 10.25 5.75C10.25 4.95435 9.93393 4.19129 9.37132 3.62868C8.80871 3.06607 8.04565 2.75 7.25 2.75C6.45435 2.75 5.69129 3.06607 5.12868 3.62868C4.56607 4.19129 4.25 4.95435 4.25 5.75Z" stroke="#246BEB" stroke-width="1.5" stroke-linecap="round" stroke-linejoin="round"/>
</svg>
