<svg width="17" height="17" viewBox="0 0 17 17" fill="none" xmlns="http://www.w3.org/2000/svg">
<mask id="mask0_2484_57827" style="mask-type:alpha" maskUnits="userSpaceOnUse" x="0" y="0" width="17" height="17">
<rect x="0.5" y="0.136719" width="16" height="16" fill="#D9D9D9"/>
</mask>
<g mask="url(#mask0_2484_57827)">
</g>
<path d="M10.3307 12.4714H14.3307M12.3307 10.4714V14.4714M3.66406 13.8047V12.4714C3.66406 11.7641 3.94501 11.0858 4.44511 10.5857C4.94521 10.0856 5.62348 9.80469 6.33073 9.80469H8.99739M4.9974 4.47135C4.9974 5.1786 5.27835 5.85688 5.77844 6.35697C6.27854 6.85707 6.95682 7.13802 7.66406 7.13802C8.37131 7.13802 9.04958 6.85707 9.54968 6.35697C10.0498 5.85688 10.3307 5.1786 10.3307 4.47135C10.3307 3.76411 10.0498 3.08583 9.54968 2.58574C9.04958 2.08564 8.37131 1.80469 7.66406 1.80469C6.95682 1.80469 6.27854 2.08564 5.77844 2.58574C5.27835 3.08583 4.9974 3.76411 4.9974 4.47135Z" stroke="#555555" stroke-width="1.3" stroke-linecap="round" stroke-linejoin="round"/>
</svg>
