<svg width="20" height="21" viewBox="0 0 20 21" fill="none" xmlns="http://www.w3.org/2000/svg">
<path d="M2.75 16.75V15.25C2.75 14.4543 3.06607 13.6913 3.62868 13.1287C4.19129 12.5661 4.95435 12.25 5.75 12.25H8.75C9.54565 12.25 10.3087 12.5661 10.8713 13.1287C11.4339 13.6913 11.75 14.4543 11.75 15.25V16.75M12.5 3.34814C13.1453 3.51337 13.7173 3.88867 14.1257 4.41488C14.5342 4.94108 14.7559 5.58827 14.7559 6.25439C14.7559 6.92052 14.5342 7.5677 14.1257 8.09391C13.7173 8.62012 13.1453 8.99542 12.5 9.16064M16.25 16.7503V15.2503C16.2462 14.5882 16.0234 13.9459 15.6165 13.4236C15.2095 12.9013 14.6411 12.5283 14 12.3628M4.25 6.25C4.25 7.04565 4.56607 7.80871 5.12868 8.37132C5.69129 8.93393 6.45435 9.25 7.25 9.25C8.04565 9.25 8.80871 8.93393 9.37132 8.37132C9.93393 7.80871 10.25 7.04565 10.25 6.25C10.25 5.45435 9.93393 4.69129 9.37132 4.12868C8.80871 3.56607 8.04565 3.25 7.25 3.25C6.45435 3.25 5.69129 3.56607 5.12868 4.12868C4.56607 4.69129 4.25 5.45435 4.25 6.25Z" stroke="white" stroke-width="1.5" stroke-linecap="round" stroke-linejoin="round"/>
</svg>
