<svg width="20" height="20" viewBox="0 0 20 20" fill="none" xmlns="http://www.w3.org/2000/svg">
<mask id="mask0_3063_70059" style="mask-type:alpha" maskUnits="userSpaceOnUse" x="0" y="0" width="20" height="20">
<rect width="20" height="20" fill="#D9D9D9"/>
</mask>
<g mask="url(#mask0_3063_70059)">
<path d="M11.625 3.5H16.5V8.375H11.625V3.5Z" stroke="#fff" stroke-width="1.5" stroke-linecap="round" stroke-linejoin="round"/>
<path d="M3.5 11.625H8.375V16.5H3.5V11.625Z" stroke="#fff" stroke-width="1.5" stroke-linecap="round" stroke-linejoin="round"/>
<path d="M11.625 14.0625C11.625 14.709 11.8818 15.329 12.3389 15.7861C12.796 16.2432 13.416 16.5 14.0625 16.5C14.709 16.5 15.329 16.2432 15.7861 15.7861C16.2432 15.329 16.5 14.709 16.5 14.0625C16.5 13.416 16.2432 12.796 15.7861 12.3389C15.329 11.8818 14.709 11.625 14.0625 11.625C13.416 11.625 12.796 11.8818 12.3389 12.3389C11.8818 12.796 11.625 13.416 11.625 14.0625Z" stroke="#fff" stroke-width="1.5" stroke-linecap="round" stroke-linejoin="round"/>
<path d="M3.5 5.9375C3.5 6.2576 3.56305 6.57456 3.68554 6.87029C3.80804 7.16602 3.98758 7.43473 4.21393 7.66107C4.44027 7.88742 4.70898 8.06696 5.00471 8.18946C5.30044 8.31195 5.6174 8.375 5.9375 8.375C6.2576 8.375 6.57456 8.31195 6.87029 8.18946C7.16602 8.06696 7.43473 7.88742 7.66107 7.66107C7.88742 7.43473 8.06696 7.16602 8.18946 6.87029C8.31195 6.57456 8.375 6.2576 8.375 5.9375C8.375 5.6174 8.31195 5.30044 8.18946 5.00471C8.06696 4.70898 7.88742 4.44027 7.66107 4.21393C7.43473 3.98758 7.16602 3.80804 6.87029 3.68554C6.57456 3.56305 6.2576 3.5 5.9375 3.5C5.6174 3.5 5.30044 3.56305 5.00471 3.68554C4.70898 3.80804 4.44027 3.98758 4.21393 4.21393C3.98758 4.44027 3.80804 4.70898 3.68554 5.00471C3.56305 5.30044 3.5 5.6174 3.5 5.9375Z" stroke="#fff" stroke-width="1.5" stroke-linecap="round" stroke-linejoin="round"/>
</g>
</svg>
