<svg width="17" height="17" viewBox="0 0 17 17" fill="none" xmlns="http://www.w3.org/2000/svg">
<mask id="mask0_2484_57395" style="mask-type:alpha" maskUnits="userSpaceOnUse" x="0" y="0" width="17" height="17">
<rect x="0.5" y="0.136719" width="16" height="16" fill="#D9D9D9"/>
</mask>
<g mask="url(#mask0_2484_57395)">
</g>
<path d="M11.168 2.13672V4.80339M5.83463 2.13672V4.80339M3.16797 7.47005H13.8346M3.16797 4.80339C3.16797 4.44976 3.30844 4.11062 3.55849 3.86058C3.80854 3.61053 4.14768 3.47005 4.5013 3.47005H12.5013C12.8549 3.47005 13.1941 3.61053 13.4441 3.86058C13.6942 4.11062 13.8346 4.44976 13.8346 4.80339V12.8034C13.8346 13.157 13.6942 13.4961 13.4441 13.7462C13.1941 13.9962 12.8549 14.1367 12.5013 14.1367H4.5013C4.14768 14.1367 3.80854 13.9962 3.55849 13.7462C3.30844 13.4961 3.16797 13.157 3.16797 12.8034V4.80339Z" stroke="#555555" stroke-width="1.3" stroke-linecap="round" stroke-linejoin="round"/>
</svg>
