<svg width="21" height="21" viewBox="0 0 21 21" fill="none" xmlns="http://www.w3.org/2000/svg">
<mask id="mask0_4073_129779" style="mask-type:luminance" maskUnits="userSpaceOnUse" x="2" y="4" width="17" height="13">
<path d="M17.6641 4H3.66406C3.11178 4 2.66406 4.44772 2.66406 5V16C2.66406 16.5523 3.11178 17 3.66406 17H17.6641C18.2163 17 18.6641 16.5523 18.6641 16V5C18.6641 4.44772 18.2163 4 17.6641 4Z" fill="white"/>
</mask>
<g mask="url(#mask0_4073_129779)">
<path d="M17.6641 4H3.66406C3.11178 4 2.66406 4.44772 2.66406 5V16C2.66406 16.5523 3.11178 17 3.66406 17H17.6641C18.2163 17 18.6641 16.5523 18.6641 16V5C18.6641 4.44772 18.2163 4 17.6641 4Z" stroke="#2D2D2D" stroke-width="2.8"/>
</g>
<path d="M3.36328 5.0002C3.36328 4.83451 3.4976 4.7002 3.66328 4.7002H17.6633C17.8289 4.7002 17.9633 4.83451 17.9633 5.0002V6.02423C17.9633 6.11457 17.9226 6.2001 17.8524 6.25706L10.8524 11.9446C10.7422 12.0341 10.5843 12.0341 10.4741 11.9446L3.4741 6.25706C3.40399 6.2001 3.36328 6.11457 3.36328 6.02423V5.0002Z" stroke="#2D2D2D" stroke-width="1.4"/>
</svg>
