<svg width="20" height="20" viewBox="0 0 20 20" fill="none" xmlns="http://www.w3.org/2000/svg">
<path d="M14.3957 13.5727V7.9277C14.3957 5.3183 12.4253 3.20117 9.9957 3.20117C7.56611 3.20117 5.5957 5.3163 5.5957 7.9277V13.5727C5.5957 13.5727 14.3374 13.6367 14.3957 13.5727Z" stroke="#555555" stroke-width="1.4" stroke-linecap="round" stroke-linejoin="round"/>
<path d="M16.1882 15.9996H3.80826C3.38431 15.9996 3.08877 15.649 3.23349 15.317L3.49845 14.7124C3.79195 14.0434 4.55627 13.5996 5.41231 13.5996H14.5801C15.4361 13.5996 16.2005 14.0434 16.494 14.7124L16.7589 15.317C16.9036 15.649 16.6101 15.9996 16.1842 15.9996H16.1882Z" stroke="#555555" stroke-width="1.4" stroke-linecap="round" stroke-linejoin="round"/>
<path d="M11.7965 8.19961C11.7965 7.31728 10.7192 6.59961 9.39648 6.59961" stroke="#555555" stroke-width="1.4" stroke-linecap="round" stroke-linejoin="round"/>
</svg>
