<svg width="20" height="20" viewBox="0 0 20 20" fill="none" xmlns="http://www.w3.org/2000/svg">
<mask id="mask0_3063_70062" style="mask-type:alpha" maskUnits="userSpaceOnUse" x="0" y="0" width="20" height="20">
<rect width="20" height="20" fill="#D9D9D9"/>
</mask>
<g mask="url(#mask0_3063_70062)">
</g>
<path d="M5.66527 7.66527H7.66527V5.66527L5.33193 3.33193C6.07835 2.97545 6.91693 2.85914 7.7322 2.99902C8.54747 3.13889 9.29932 3.52808 9.88422 4.11298C10.4691 4.69789 10.8583 5.44974 10.9982 6.265C11.1381 7.08027 11.0218 7.91885 10.6653 8.66527L14.6653 12.6653C14.9305 12.9305 15.0795 13.2902 15.0795 13.6653C15.0795 14.0403 14.9305 14.4001 14.6653 14.6653C14.4001 14.9305 14.0403 15.0795 13.6653 15.0795C13.2902 15.0795 12.9305 14.9305 12.6653 14.6653L8.66527 10.6653C7.91885 11.0218 7.08027 11.1381 6.265 10.9982C5.44974 10.8583 4.69789 10.4691 4.11298 9.88422C3.52808 9.29932 3.13889 8.54747 2.99902 7.7322C2.85914 6.91693 2.97545 6.07835 3.33193 5.33193L5.66527 7.66527Z" stroke="#fff" stroke-width="1.4" stroke-linecap="round" stroke-linejoin="round"/>
</svg>
