<svg width="26" height="24" viewBox="0 0 26 24" fill="none" xmlns="http://www.w3.org/2000/svg">
<rect x="4.5" y="0.5" width="17" height="23" fill="#F8F8F8" stroke="#9A9A9A"/>
<rect y="5" width="26" height="14" fill="#CC0A00"/>
<rect x="5" y="19" width="16" height="2" fill="#DDDDDD"/>
<path d="M5.05469 15.0009V8.62891H7.32269C8.80769 8.63791 9.53669 9.52891 9.53669 10.6989C9.53669 11.8779 8.79869 12.7689 7.32269 12.7689H6.02669V15.0009H5.05469ZM6.02669 11.9409H7.23269C8.16869 11.9409 8.55569 11.4189 8.56469 10.6989C8.55569 9.97891 8.16869 9.46591 7.23269 9.47491H6.02669V11.9409Z" fill="#F8F8F8"/>
<path d="M12.3479 15.0009H10.2779V8.62891H12.4019C14.2829 8.63791 15.3989 9.82591 15.4079 11.8149C15.3989 13.7949 14.2829 15.0009 12.3479 15.0009ZM11.2499 14.1549H12.2939C13.7339 14.1549 14.4449 13.3179 14.4539 11.8149C14.4449 10.3119 13.7339 9.48391 12.3479 9.47491H11.2499V14.1549Z" fill="#F8F8F8"/>
<path d="M16.2217 15.0009V8.62891H20.1637V9.47491H17.1937V11.4009H19.8937V12.2289H17.1937V15.0009H16.2217Z" fill="#F8F8F8"/>
</svg>
