<svg width="26" height="24" viewBox="0 0 26 24" fill="none" xmlns="http://www.w3.org/2000/svg">
<rect x="4.5" y="0.5" width="17" height="23" fill="white" stroke="#9A9A9A"/>
<rect y="5" width="26" height="14" fill="#8B3793"/>
<rect x="5" y="19" width="16" height="2" fill="#DDDDDD"/>
<path d="M6.65559 8.62871V15.0007H5.68359V8.62871H6.65559Z" fill="white"/>
<path d="M7.68117 8.62871H8.85117L10.8852 13.5607H10.9572L12.9732 8.62871H14.1432V15.0007H13.2252V10.4107H13.1712L11.2992 14.9827H10.5252L8.65317 10.3927H8.59917V15.0007H7.68117V8.62871Z" fill="white"/>
<path d="M19.4739 10.6447C19.2309 9.89771 18.6639 9.42971 17.8179 9.43871C16.7469 9.42971 15.9279 10.2757 15.9279 11.8147C15.9279 13.3627 16.7379 14.1997 17.8539 14.2087C18.8799 14.1997 19.5549 13.5607 19.5639 12.5347H17.9979V11.7427H20.5179V12.4627C20.5089 14.0737 19.4019 15.0907 17.8539 15.0907C16.1349 15.0907 14.9649 13.8307 14.9559 11.8147C14.9649 9.78971 16.1619 8.54771 17.8179 8.55671C19.1859 8.54771 20.2479 9.40271 20.4639 10.6447H19.4739Z" fill="white"/>
</svg>
