<svg width="26" height="24" viewBox="0 0 26 24" fill="none" xmlns="http://www.w3.org/2000/svg">
<rect x="4.5" y="0.5" width="17" height="23" fill="white" stroke="#9A9A9A"/>
<rect y="5" width="26" height="14" fill="#EF6000"/>
<rect x="5" y="19" width="16" height="2" fill="#DDDDDD"/>
<path d="M6.125 15.0009V8.62891H8.393C9.878 8.63791 10.607 9.52891 10.607 10.6989C10.607 11.8779 9.869 12.7689 8.393 12.7689H7.097V15.0009H6.125ZM7.097 11.9409H8.303C9.239 11.9409 9.626 11.4189 9.635 10.6989C9.626 9.97891 9.239 9.46591 8.303 9.47491H7.097V11.9409Z" fill="white"/>
<path d="M11.3482 15.0009V8.62891H13.6162C15.1012 8.63791 15.8302 9.52891 15.8302 10.6989C15.8302 11.8779 15.0922 12.7689 13.6162 12.7689H12.3202V15.0009H11.3482ZM12.3202 11.9409H13.5262C14.4622 11.9409 14.8492 11.4189 14.8582 10.6989C14.8492 9.97891 14.4622 9.46591 13.5262 9.47491H12.3202V11.9409Z" fill="white"/>
<path d="M16.2473 9.47491V8.62891H21.1793V9.47491H19.1993V15.0009H18.2453V9.47491H16.2473Z" fill="white"/>
</svg>
