<svg width="26" height="24" viewBox="0 0 26 24" fill="none" xmlns="http://www.w3.org/2000/svg">
<rect x="4.5" y="0.5" width="17" height="23" fill="white" stroke="#9A9A9A"/>
<rect y="5" width="26" height="14" fill="#589B00"/>
<rect x="5" y="19" width="16" height="2" fill="#DDDDDD"/>
<path d="M6.5563 8.62872L8.0683 11.1127H8.1043L9.6343 8.62872H10.7503L8.7703 11.8147L10.7683 15.0007H9.6343L8.1043 12.5527H8.0683L6.5383 15.0007H5.4043L7.4383 11.8147L5.4223 8.62872H6.5563Z" fill="white"/>
<path d="M11.324 15.0007V8.62872H12.296V14.1727H15.176V15.0007H11.324Z" fill="white"/>
<path d="M19.3708 10.3207C19.2987 9.72672 18.7857 9.38472 18.0567 9.38472C17.2737 9.38472 16.7787 9.78072 16.7787 10.3207C16.7787 10.9237 17.4358 11.1577 17.9307 11.2927L18.5608 11.4547C19.3708 11.6437 20.3877 12.0937 20.3787 13.2367C20.3877 14.3167 19.5238 15.1087 18.0208 15.1087C16.5988 15.1087 15.7077 14.3977 15.6447 13.2367H16.6167C16.6707 13.9297 17.2828 14.2627 18.0208 14.2627C18.8398 14.2627 19.4248 13.8487 19.4248 13.2367C19.4248 12.6697 18.9028 12.4447 18.2188 12.2647L17.4808 12.0667C16.4458 11.7877 15.8157 11.2657 15.8067 10.3747C15.8157 9.27672 16.7878 8.54772 18.0747 8.55672C19.3708 8.54772 20.2708 9.28572 20.3068 10.3207H19.3708Z" fill="white"/>
</svg>
