<svg width="26" height="24" viewBox="0 0 26 24" fill="none" xmlns="http://www.w3.org/2000/svg">
<rect x="4.5" y="0.5" width="17" height="23" fill="white" stroke="#9A9A9A"/>
<rect y="5" width="26" height="14" fill="black"/>
<rect x="5" y="19" width="16" height="2" fill="#DDDDDD"/>
<path d="M7.62975 15.0009V14.3529L10.9598 9.47491H7.59375V8.62891H12.1478V9.27691L8.81775 14.1729H12.1838V15.0009H7.62975Z" fill="white"/>
<path d="M13.9869 8.62891V15.0009H13.0149V8.62891H13.9869Z" fill="white"/>
<path d="M15.0125 15.0009V8.62891H17.2805C18.7655 8.63791 19.4945 9.52891 19.4945 10.6989C19.4945 11.8779 18.7565 12.7689 17.2805 12.7689H15.9845V15.0009H15.0125ZM15.9845 11.9409H17.1905C18.1265 11.9409 18.5135 11.4189 18.5225 10.6989C18.5135 9.97891 18.1265 9.46591 17.1905 9.47491H15.9845V11.9409Z" fill="white"/>
</svg>
